<svg width="640" height="640" viewBox="0 0 640 640" fill="none" xmlns="http://www.w3.org/2000/svg">
<path d="M0 0H340C505.685 0 640 134.315 640 300V490C640 572.843 572.843 640 490 640H300C134.315 640 0 505.685 0 340V0Z" fill="#C7C0C0"/>
<path d="M224.267 508.586L218.082 508.967C217.976 508.438 217.749 507.962 217.4 507.539C217.051 507.106 216.591 506.762 216.02 506.509C215.46 506.244 214.789 506.112 214.006 506.112C212.96 506.112 212.077 506.334 211.358 506.778C210.639 507.212 210.279 507.793 210.279 508.523C210.279 509.104 210.512 509.596 210.977 509.998C211.442 510.399 212.241 510.722 213.372 510.965L217.781 511.853C220.149 512.34 221.915 513.122 223.078 514.2C224.241 515.279 224.822 516.696 224.822 518.451C224.822 520.047 224.352 521.448 223.411 522.654C222.481 523.859 221.201 524.8 219.573 525.477C217.955 526.143 216.089 526.476 213.975 526.476C210.75 526.476 208.18 525.804 206.267 524.462C204.364 523.108 203.248 521.269 202.92 518.942L209.566 518.594C209.766 519.577 210.253 520.328 211.025 520.846C211.796 521.353 212.785 521.607 213.99 521.607C215.175 521.607 216.126 521.38 216.845 520.925C217.575 520.46 217.945 519.862 217.955 519.133C217.945 518.52 217.686 518.017 217.178 517.626C216.671 517.224 215.888 516.918 214.831 516.706L210.612 515.866C208.233 515.39 206.462 514.565 205.299 513.392C204.147 512.218 203.571 510.722 203.571 508.903C203.571 507.339 203.994 505.991 204.839 504.859C205.696 503.728 206.896 502.856 208.44 502.242C209.994 501.629 211.812 501.323 213.895 501.323C216.972 501.323 219.393 501.973 221.159 503.273C222.935 504.574 223.971 506.345 224.267 508.586ZM239.947 535.135C239.091 535.135 238.287 535.066 237.536 534.929C236.796 534.802 236.183 534.638 235.697 534.437L237.219 529.394C238.012 529.637 238.726 529.769 239.36 529.79C240.005 529.812 240.56 529.664 241.025 529.346C241.501 529.029 241.887 528.49 242.183 527.729L242.58 526.698L233.841 501.64L240.946 501.64L245.989 519.529L246.243 519.529L251.334 501.64L258.487 501.64L249.019 528.633C248.564 529.944 247.945 531.086 247.163 532.058C246.391 533.042 245.413 533.798 244.229 534.326C243.045 534.866 241.617 535.135 239.947 535.135ZM275.399 511.917L275.399 526L268.643 526L268.643 501.64L275.082 501.64L275.082 505.938L275.368 505.938C275.907 504.521 276.811 503.4 278.08 502.575C279.348 501.74 280.887 501.323 282.695 501.323C284.386 501.323 285.861 501.693 287.12 502.433C288.378 503.173 289.356 504.23 290.054 505.605C290.751 506.969 291.1 508.597 291.1 510.489L291.1 526L284.344 526L284.344 511.695C284.355 510.204 283.974 509.041 283.202 508.206C282.43 507.36 281.368 506.937 280.015 506.937C279.105 506.937 278.302 507.132 277.604 507.524C276.917 507.915 276.377 508.486 275.986 509.236C275.606 509.977 275.41 510.87 275.399 511.917ZM302.096 490.242L302.096 482.693L337.664 482.693L337.664 490.242L324.405 490.242L324.405 526L315.355 526L315.355 490.242L302.096 490.242ZM353.049 526L353.049 482.693L362.205 482.693L362.205 501.788L362.776 501.788L378.361 482.693L389.336 482.693L373.265 502.084L389.526 526L378.572 526L366.709 508.195L362.205 513.693L362.205 526L353.049 526ZM439.855 482.693L439.855 526L431.946 526L413.105 498.743L412.788 498.743L412.788 526L403.632 526L403.632 482.693L411.667 482.693L430.36 509.929L430.741 509.929L430.741 482.693L439.855 482.693Z" fill="#222222"/>
<path d="M327.58 384.48C236.44 384.48 189.82 341.64 189.82 262.26C189.82 182.46 236.44 140.04 327.58 140.04L440.56 140.04L440.56 169.86L327.58 169.86C254.92 169.86 220.06 197.58 220.06 262.26C220.06 326.94 254.5 355.08 327.58 355.08L440.56 355.08L440.56 384.48L327.58 384.48ZM206.62 443.28L206.62 413.46L440.56 413.46L440.56 443.28L206.62 443.28Z" fill="black"/>
</svg>
