<svg width="2400" height="1000" viewBox="0 0 2400 1000" fill="none" xmlns="http://www.w3.org/2000/svg">
<g clip-path="url(#clip0_20_5151)">
<path d="M0 0H2000C2220.91 0 2400 179.086 2400 400V800C2400 910.457 2310.46 1000 2200 1000H400C179.086 1000 0 820.914 0 600V0Z" fill="#C7C0C0"/>
<rect x="2133" y="805.002" width="12" height="76" fill="#D9D9D9" fill-opacity="0.27"/>
<rect x="2097" y="852.002" width="12" height="29" fill="#D9D9D9" fill-opacity="0.27"/>
<rect x="2025" y="834.002" width="12" height="47" fill="#D9D9D9" fill-opacity="0.27"/>
<rect x="2037" y="852.002" width="12" height="29" fill="#D9D9D9" fill-opacity="0.27"/>
<rect x="2061" y="748.002" width="12" height="29" fill="#D9D9D9" fill-opacity="0.27"/>
<rect x="2169" y="806.002" width="12" height="46" fill="#D9D9D9" fill-opacity="0.27"/>
<rect x="2217" y="611.998" width="12" height="76" fill="#D9D9D9" fill-opacity="0.27"/>
<rect x="2235" y="554.998" width="12" height="104" fill="#D9D9D9" fill-opacity="0.27"/>
<rect x="2181" y="658.998" width="12" height="29" fill="#D9D9D9" fill-opacity="0.27"/>
<rect x="2127" y="658.998" width="12" height="29" fill="#D9D9D9" fill-opacity="0.27"/>
<rect x="2181" y="583.998" width="12" height="29" fill="#D9D9D9" fill-opacity="0.27"/>
<rect x="2145" y="554.998" width="12" height="29" fill="#D9D9D9" fill-opacity="0.27"/>
<rect x="2163" y="583.998" width="12" height="75" fill="#D9D9D9" fill-opacity="0.27"/>
<rect x="2253" y="612.998" width="12" height="46" fill="#D9D9D9" fill-opacity="0.27"/>
<rect x="2205" y="629.998" width="12" height="87" fill="#D9D9D9" fill-opacity="0.27"/>
<rect x="2193" y="583.998" width="12" height="46" fill="#D9D9D9" fill-opacity="0.27"/>
<rect x="1875" y="351.002" width="12" height="29" fill="#D9D9D9" fill-opacity="0.27"/>
<rect x="1839" y="351.002" width="12" height="29" fill="#D9D9D9" fill-opacity="0.27"/>
<rect x="1821" y="351.002" width="12" height="29" fill="#D9D9D9" fill-opacity="0.27"/>
<rect x="1869" y="276.002" width="12" height="29" fill="#D9D9D9" fill-opacity="0.27"/>
<rect x="1839" y="247.002" width="12" height="29" fill="#D9D9D9" fill-opacity="0.27"/>
<rect x="1845" y="302.002" width="12" height="29" fill="#D9D9D9" fill-opacity="0.27"/>
<rect x="1857" y="276.002" width="12" height="75" fill="#D9D9D9" fill-opacity="0.27"/>
<rect x="1947" y="305.002" width="12" height="46" fill="#D9D9D9" fill-opacity="0.27"/>
<rect x="2089" y="511.998" width="12" height="14" fill="#D9D9D9" fill-opacity="0.27"/>
<rect x="2107" y="407.998" width="12" height="29" fill="#D9D9D9" fill-opacity="0.27"/>
<rect x="2125" y="483.998" width="12" height="28" fill="#D9D9D9" fill-opacity="0.27"/>
<rect x="2113" y="454.998" width="12" height="29" fill="#D9D9D9" fill-opacity="0.27"/>
<rect x="2019" y="629.998" width="12" height="104" transform="rotate(-180 2019 629.998)" fill="#D9D9D9" fill-opacity="0.27"/>
<rect x="2001" y="658.998" width="12" height="104" transform="rotate(-180 2001 658.998)" fill="#D9D9D9" fill-opacity="0.27"/>
<rect x="2055" y="554.998" width="12" height="29" transform="rotate(-180 2055 554.998)" fill="#D9D9D9" fill-opacity="0.27"/>
<rect x="2091" y="658.998" width="12" height="29" transform="rotate(-180 2091 658.998)" fill="#D9D9D9" fill-opacity="0.27"/>
<rect x="2073" y="629.998" width="12" height="75" transform="rotate(-180 2073 629.998)" fill="#D9D9D9" fill-opacity="0.27"/>
<rect x="2037" y="658.998" width="12" height="133" transform="rotate(-180 2037 658.998)" fill="#D9D9D9" fill-opacity="0.27"/>
<rect x="2287" y="511.998" width="12" height="104" transform="rotate(-180 2287 511.998)" fill="#D9D9D9" fill-opacity="0.27"/>
<rect x="2269" y="540.998" width="12" height="104" transform="rotate(-180 2269 540.998)" fill="#D9D9D9" fill-opacity="0.27"/>
<rect x="2323" y="436.998" width="12" height="29" transform="rotate(-180 2323 436.998)" fill="#D9D9D9" fill-opacity="0.27"/>
<rect x="2359" y="540.998" width="12" height="29" transform="rotate(-180 2359 540.998)" fill="#D9D9D9" fill-opacity="0.27"/>
<rect x="2341" y="511.998" width="12" height="75" transform="rotate(-180 2341 511.998)" fill="#D9D9D9" fill-opacity="0.27"/>
<rect x="2305" y="540.998" width="12" height="133" transform="rotate(-180 2305 540.998)" fill="#D9D9D9" fill-opacity="0.27"/>
<rect x="1959" y="1.00195" width="12" height="104" transform="rotate(-180 1959 1.00195)" fill="#D9D9D9" fill-opacity="0.27"/>
<rect x="1941" y="30.001" width="12" height="104" transform="rotate(-180 1941 30.001)" fill="#D9D9D9" fill-opacity="0.27"/>
<rect x="2031" y="30.001" width="12" height="29" transform="rotate(-180 2031 30.001)" fill="#D9D9D9" fill-opacity="0.27"/>
<rect x="2019" y="59.002" width="12" height="29" transform="rotate(-180 2019 59.002)" fill="#D9D9D9" fill-opacity="0.27"/>
<rect x="1995" y="88.002" width="12" height="29" transform="rotate(-180 1995 88.002)" fill="#D9D9D9" fill-opacity="0.27"/>
<rect x="1983" y="117.002" width="12" height="29" transform="rotate(-180 1983 117.002)" fill="#D9D9D9" fill-opacity="0.27"/>
<rect x="2037" y="117.002" width="12" height="29" transform="rotate(-180 2037 117.002)" fill="#D9D9D9" fill-opacity="0.27"/>
<rect x="2091" y="117.002" width="12" height="29" transform="rotate(-180 2091 117.002)" fill="#D9D9D9" fill-opacity="0.27"/>
<rect x="2007" y="88.002" width="12" height="58" transform="rotate(-180 2007 88.002)" fill="#D9D9D9" fill-opacity="0.27"/>
<rect x="2013" y="1.00195" width="12" height="75" transform="rotate(-180 2013 1.00195)" fill="#D9D9D9" fill-opacity="0.27"/>
<rect x="2001" y="30.001" width="12" height="75" transform="rotate(-180 2001 30.001)" fill="#D9D9D9" fill-opacity="0.27"/>
<rect x="1977" y="30.001" width="12" height="133" transform="rotate(-180 1977 30.001)" fill="#D9D9D9" fill-opacity="0.27"/>
<rect x="1917" y="484.002" width="12" height="104" fill="#D9D9D9" fill-opacity="0.27"/>
<rect x="1863" y="588.002" width="12" height="29" fill="#D9D9D9" fill-opacity="0.27"/>
<rect x="1827" y="484.002" width="12" height="29" fill="#D9D9D9" fill-opacity="0.27"/>
<rect x="1863" y="484.002" width="12" height="75" fill="#D9D9D9" fill-opacity="0.27"/>
<rect x="1851" y="513.002" width="12" height="75" fill="#D9D9D9" fill-opacity="0.27"/>
<rect x="1875" y="513.002" width="12" height="17" fill="#D9D9D9" fill-opacity="0.27"/>
<g clip-path="url(#clip1_20_5151)">
<path d="M406.82 409.52C497.96 409.52 544.58 452.36 544.58 531.74C544.58 611.54 497.96 653.96 406.82 653.96L293.84 653.96L293.84 624.14L406.82 624.14C479.48 624.14 514.34 596.42 514.34 531.74C514.34 467.06 479.9 438.92 406.82 438.92L293.84 438.92L293.84 409.52L406.82 409.52ZM527.78 350.72L527.78 380.54L293.84 380.54L293.84 350.72L527.78 350.72Z" fill="#272727" fill-opacity="0.25"/>
<path d="M856.719 592.494C792.273 656.939 729.015 659.612 672.885 603.482C616.458 547.055 619.428 484.094 683.873 419.649L763.762 339.76L784.848 360.846L704.959 440.734C653.581 492.113 648.532 536.364 694.268 582.099C740.003 627.835 784.254 623.38 835.93 571.705L915.819 491.816L936.607 512.605L856.719 592.494ZM812.765 719.603L791.679 698.517L957.099 533.097L978.185 554.183L812.765 719.603Z" fill="#5C4545" fill-opacity="0.25"/>
<path d="M1096.52 515.18C1096.52 424.04 1139.36 377.42 1218.74 377.42C1298.54 377.42 1340.96 424.04 1340.96 515.18L1340.96 628.16L1311.14 628.16L1311.14 515.18C1311.14 442.52 1283.42 407.66 1218.74 407.66C1154.06 407.66 1125.92 442.1 1125.92 515.18L1125.92 628.16L1096.52 628.16L1096.52 515.18ZM1037.72 394.22L1067.54 394.22L1067.54 628.16L1037.72 628.16L1037.72 394.22Z" fill="#6F4C4C" fill-opacity="0.25"/>
</g>
<g clip-path="url(#clip2_20_5151)">
<path d="M386.82 398.52C477.96 398.52 524.58 441.36 524.58 520.74C524.58 600.54 477.96 642.96 386.82 642.96L273.84 642.96L273.84 613.14L386.82 613.14C459.48 613.14 494.34 585.42 494.34 520.74C494.34 456.06 459.9 427.92 386.82 427.92L273.84 427.92L273.84 398.52L386.82 398.52ZM507.78 339.72L507.78 369.54L273.84 369.54L273.84 339.72L507.78 339.72Z" fill="#484747"/>
<path d="M836.719 581.494C772.273 645.939 709.015 648.612 652.885 592.482C596.458 536.055 599.428 473.094 663.873 408.649L743.762 328.76L764.848 349.846L684.959 429.734C633.581 481.113 628.532 525.364 674.268 571.099C720.003 616.835 764.254 612.38 815.93 560.705L895.819 480.816L916.607 501.605L836.719 581.494ZM792.765 708.603L771.679 687.517L937.099 522.097L958.185 543.183L792.765 708.603Z" fill="#6F4C4C"/>
<path d="M1076.52 504.18C1076.52 413.04 1119.36 366.42 1198.74 366.42C1278.54 366.42 1320.96 413.04 1320.96 504.18L1320.96 617.16L1291.14 617.16L1291.14 504.18C1291.14 431.52 1263.42 396.66 1198.74 396.66C1134.06 396.66 1105.92 431.1 1105.92 504.18L1105.92 617.16L1076.52 617.16L1076.52 504.18ZM1017.72 383.22L1047.54 383.22L1047.54 617.16L1017.72 617.16L1017.72 383.22Z" fill="#874A4A"/>
</g>
<rect x="1773" y="494" width="12" height="76" transform="rotate(180 1773 494)" fill="#D9D9D9" fill-opacity="0.27"/>
<rect x="1809" y="447" width="12" height="29" transform="rotate(180 1809 447)" fill="#D9D9D9" fill-opacity="0.27"/>
<rect x="1881" y="465" width="12" height="47" transform="rotate(180 1881 465)" fill="#D9D9D9" fill-opacity="0.27"/>
<rect x="1869" y="447" width="12" height="29" transform="rotate(180 1869 447)" fill="#D9D9D9" fill-opacity="0.27"/>
<rect x="1845" y="551" width="12" height="29" transform="rotate(180 1845 551)" fill="#D9D9D9" fill-opacity="0.27"/>
<rect x="1737" y="493" width="12" height="46" transform="rotate(180 1737 493)" fill="#D9D9D9" fill-opacity="0.27"/>
<rect x="1689" y="687" width="12" height="76" transform="rotate(180 1689 687)" fill="#D9D9D9" fill-opacity="0.27"/>
<rect x="1671" y="744" width="12" height="104" transform="rotate(180 1671 744)" fill="#D9D9D9" fill-opacity="0.27"/>
<rect x="1725" y="640" width="12" height="29" transform="rotate(180 1725 640)" fill="#D9D9D9" fill-opacity="0.27"/>
<rect x="1779" y="640" width="12" height="29" transform="rotate(180 1779 640)" fill="#D9D9D9" fill-opacity="0.27"/>
<rect x="1725" y="715" width="12" height="29" transform="rotate(180 1725 715)" fill="#D9D9D9" fill-opacity="0.27"/>
<rect x="1761" y="744" width="12" height="29" transform="rotate(180 1761 744)" fill="#D9D9D9" fill-opacity="0.27"/>
<rect x="1743" y="715" width="12" height="75" transform="rotate(180 1743 715)" fill="#D9D9D9" fill-opacity="0.27"/>
<rect x="1653" y="686" width="12" height="46" transform="rotate(180 1653 686)" fill="#D9D9D9" fill-opacity="0.27"/>
<rect x="1701" y="669" width="12" height="87" transform="rotate(180 1701 669)" fill="#D9D9D9" fill-opacity="0.27"/>
<rect x="1713" y="715" width="12" height="46" transform="rotate(180 1713 715)" fill="#D9D9D9" fill-opacity="0.27"/>
<rect x="1923" y="563" width="12" height="29" transform="rotate(180 1923 563)" fill="#D9D9D9" fill-opacity="0.27"/>
<rect x="1959" y="563" width="12" height="29" transform="rotate(180 1959 563)" fill="#D9D9D9" fill-opacity="0.27"/>
<rect x="1977" y="563" width="12" height="29" transform="rotate(180 1977 563)" fill="#D9D9D9" fill-opacity="0.27"/>
<rect x="1929" y="638" width="12" height="29" transform="rotate(180 1929 638)" fill="#D9D9D9" fill-opacity="0.27"/>
<rect x="1959" y="667" width="12" height="29" transform="rotate(180 1959 667)" fill="#D9D9D9" fill-opacity="0.27"/>
<rect x="1953" y="612" width="12" height="29" transform="rotate(180 1953 612)" fill="#D9D9D9" fill-opacity="0.27"/>
<rect x="1941" y="638" width="12" height="75" transform="rotate(180 1941 638)" fill="#D9D9D9" fill-opacity="0.27"/>
<rect x="1851" y="609" width="12" height="46" transform="rotate(180 1851 609)" fill="#D9D9D9" fill-opacity="0.27"/>
<rect x="1715" y="891" width="12" height="29" transform="rotate(180 1715 891)" fill="#D9D9D9" fill-opacity="0.27"/>
<rect x="1751" y="891" width="12" height="29" transform="rotate(180 1751 891)" fill="#D9D9D9" fill-opacity="0.27"/>
<rect x="1769" y="891" width="12" height="29" transform="rotate(180 1769 891)" fill="#D9D9D9" fill-opacity="0.27"/>
<rect x="1721" y="966" width="12" height="29" transform="rotate(180 1721 966)" fill="#D9D9D9" fill-opacity="0.27"/>
<rect x="1751" y="995" width="12" height="29" transform="rotate(180 1751 995)" fill="#D9D9D9" fill-opacity="0.27"/>
<rect x="1745" y="940" width="12" height="29" transform="rotate(180 1745 940)" fill="#D9D9D9" fill-opacity="0.27"/>
<rect x="1733" y="966" width="12" height="75" transform="rotate(180 1733 966)" fill="#D9D9D9" fill-opacity="0.27"/>
<rect x="1643" y="937" width="12" height="46" transform="rotate(180 1643 937)" fill="#D9D9D9" fill-opacity="0.27"/>
<rect x="1817" y="787" width="12" height="14" transform="rotate(180 1817 787)" fill="#D9D9D9" fill-opacity="0.27"/>
<rect x="1799" y="891" width="12" height="29" transform="rotate(180 1799 891)" fill="#D9D9D9" fill-opacity="0.27"/>
<rect x="1781" y="815" width="12" height="28" transform="rotate(180 1781 815)" fill="#D9D9D9" fill-opacity="0.27"/>
<rect x="1793" y="844" width="12" height="29" transform="rotate(180 1793 844)" fill="#D9D9D9" fill-opacity="0.27"/>
<rect x="1887" y="669" width="12" height="104" fill="#D9D9D9" fill-opacity="0.27"/>
<rect x="1905" y="640" width="12" height="104" fill="#D9D9D9" fill-opacity="0.27"/>
<rect x="1851" y="744" width="12" height="29" fill="#D9D9D9" fill-opacity="0.27"/>
<rect x="1815" y="640" width="12" height="29" fill="#D9D9D9" fill-opacity="0.27"/>
<rect x="1833" y="669" width="12" height="75" fill="#D9D9D9" fill-opacity="0.27"/>
<rect x="1869" y="640" width="12" height="133" fill="#D9D9D9" fill-opacity="0.27"/>
<rect x="1619" y="787" width="12" height="104" fill="#D9D9D9" fill-opacity="0.27"/>
<rect x="1637" y="758" width="12" height="104" fill="#D9D9D9" fill-opacity="0.27"/>
<rect x="1583" y="862" width="12" height="29" fill="#D9D9D9" fill-opacity="0.27"/>
<rect x="1547" y="758" width="12" height="29" fill="#D9D9D9" fill-opacity="0.27"/>
<rect x="1565" y="787" width="12" height="75" fill="#D9D9D9" fill-opacity="0.27"/>
<rect x="1601" y="758" width="12" height="133" fill="#D9D9D9" fill-opacity="0.27"/>
<rect x="1947" y="815" width="12" height="104" fill="#D9D9D9" fill-opacity="0.27"/>
<rect x="1965" y="786" width="12" height="104" fill="#D9D9D9" fill-opacity="0.27"/>
<rect x="1911" y="890" width="12" height="29" fill="#D9D9D9" fill-opacity="0.27"/>
<rect x="1875" y="786" width="12" height="29" fill="#D9D9D9" fill-opacity="0.27"/>
<rect x="1893" y="815" width="12" height="75" fill="#D9D9D9" fill-opacity="0.27"/>
<rect x="1881" y="844" width="12" height="75" fill="#D9D9D9" fill-opacity="0.27"/>
<rect x="1905" y="786" width="12" height="75" fill="#D9D9D9" fill-opacity="0.27"/>
<rect x="1929" y="786" width="12" height="133" fill="#D9D9D9" fill-opacity="0.27"/>
<rect x="1989" y="815" width="12" height="104" transform="rotate(-180 1989 815)" fill="#D9D9D9" fill-opacity="0.27"/>
<rect x="2043" y="711" width="12" height="29" transform="rotate(-180 2043 711)" fill="#D9D9D9" fill-opacity="0.27"/>
<rect x="2079" y="815" width="12" height="29" transform="rotate(-180 2079 815)" fill="#D9D9D9" fill-opacity="0.27"/>
<rect x="2043" y="815" width="12" height="75" transform="rotate(-180 2043 815)" fill="#D9D9D9" fill-opacity="0.27"/>
<rect x="2055" y="786" width="12" height="75" transform="rotate(-180 2055 786)" fill="#D9D9D9" fill-opacity="0.27"/>
<rect x="2031" y="786" width="12" height="17" transform="rotate(-180 2031 786)" fill="#D9D9D9" fill-opacity="0.27"/>
<rect x="-11.0029" y="815.996" width="12" height="76" fill="#D9D9D9" fill-opacity="0.27"/>
<rect x="6.99707" y="758.996" width="12" height="104" fill="#D9D9D9" fill-opacity="0.27"/>
<rect x="24.9971" y="816.996" width="12" height="46" fill="#D9D9D9" fill-opacity="0.27"/>
<rect x="58.9971" y="715.996" width="12" height="104" transform="rotate(-180 58.9971 715.996)" fill="#D9D9D9" fill-opacity="0.27"/>
<rect x="40.9971" y="744.996" width="12" height="104" transform="rotate(-180 40.9971 744.996)" fill="#D9D9D9" fill-opacity="0.27"/>
<rect x="94.9971" y="640.996" width="12" height="29" transform="rotate(-180 94.9971 640.996)" fill="#D9D9D9" fill-opacity="0.27"/>
<rect x="130.996" y="744.996" width="12" height="29" transform="rotate(-180 130.996 744.996)" fill="#D9D9D9" fill-opacity="0.27"/>
<rect x="112.997" y="715.996" width="12" height="75" transform="rotate(-180 112.997 715.996)" fill="#D9D9D9" fill-opacity="0.27"/>
<rect x="76.9971" y="744.996" width="12" height="133" transform="rotate(-180 76.9971 744.996)" fill="#D9D9D9" fill-opacity="0.27"/>
<rect x="1799" y="129.999" width="12" height="104" fill="#D9D9D9" fill-opacity="0.27"/>
<rect x="1817" y="100.999" width="12" height="104" fill="#D9D9D9" fill-opacity="0.27"/>
<rect x="1763" y="204.999" width="12" height="29" fill="#D9D9D9" fill-opacity="0.27"/>
<rect x="1727" y="100.999" width="12" height="29" fill="#D9D9D9" fill-opacity="0.27"/>
<rect x="1745" y="129.999" width="12" height="75" fill="#D9D9D9" fill-opacity="0.27"/>
<rect x="1733" y="158.999" width="12" height="75" fill="#D9D9D9" fill-opacity="0.27"/>
<rect x="1757" y="100.999" width="12" height="75" fill="#D9D9D9" fill-opacity="0.27"/>
<rect x="1829" y="71.999" width="12" height="133" fill="#D9D9D9" fill-opacity="0.27"/>
<rect x="1847" y="72" width="12" height="133" fill="#D9D9D9" fill-opacity="0.27"/>
<rect x="1865" y="72" width="12" height="133" fill="#D9D9D9" fill-opacity="0.27"/>
<rect x="1883" y="72.001" width="12" height="133" fill="#D9D9D9" fill-opacity="0.27"/>
<rect x="539.001" y="543" width="12" height="104" transform="rotate(-180 539.001 543)" fill="#D9D9D9" fill-opacity="0.27"/>
<rect x="521.001" y="572" width="12" height="104" transform="rotate(-180 521.001 572)" fill="#D9D9D9" fill-opacity="0.27"/>
<rect x="575.001" y="468" width="12" height="29" transform="rotate(-180 575.001 468)" fill="#D9D9D9" fill-opacity="0.27"/>
<rect x="611.001" y="572" width="12" height="29" transform="rotate(-180 611.001 572)" fill="#D9D9D9" fill-opacity="0.27"/>
<rect x="593.001" y="543" width="12" height="75" transform="rotate(-180 593.001 543)" fill="#D9D9D9" fill-opacity="0.27"/>
<rect x="605.001" y="514" width="12" height="75" transform="rotate(-180 605.001 514)" fill="#D9D9D9" fill-opacity="0.27"/>
<rect x="581.001" y="572" width="12" height="75" transform="rotate(-180 581.001 572)" fill="#D9D9D9" fill-opacity="0.27"/>
<rect x="557.001" y="572" width="12" height="133" transform="rotate(-180 557.001 572)" fill="#D9D9D9" fill-opacity="0.27"/>
<rect x="485.001" y="736" width="12" height="104" transform="rotate(-180 485.001 736)" fill="#D9D9D9" fill-opacity="0.27"/>
<rect x="467.001" y="765" width="12" height="104" transform="rotate(-180 467.001 765)" fill="#D9D9D9" fill-opacity="0.27"/>
<rect x="521.001" y="661" width="12" height="29" transform="rotate(-180 521.001 661)" fill="#D9D9D9" fill-opacity="0.27"/>
<rect x="521.001" y="736" width="12" height="29" transform="rotate(-180 521.001 736)" fill="#D9D9D9" fill-opacity="0.27"/>
<rect x="557.001" y="765" width="12" height="29" transform="rotate(-180 557.001 765)" fill="#D9D9D9" fill-opacity="0.27"/>
<rect x="539.001" y="736" width="12" height="75" transform="rotate(-180 539.001 736)" fill="#D9D9D9" fill-opacity="0.27"/>
<rect x="449.001" y="707" width="12" height="46" transform="rotate(-180 449.001 707)" fill="#D9D9D9" fill-opacity="0.27"/>
<rect x="503.001" y="736" width="12" height="133" transform="rotate(-180 503.001 736)" fill="#D9D9D9" fill-opacity="0.27"/>
<rect x="349" y="660" width="12" height="76" fill="#D9D9D9" fill-opacity="0.27"/>
<rect x="367" y="603" width="12" height="104" fill="#D9D9D9" fill-opacity="0.27"/>
<rect x="313" y="707" width="12" height="29" fill="#D9D9D9" fill-opacity="0.27"/>
<rect x="277" y="707" width="12" height="29" fill="#D9D9D9" fill-opacity="0.27"/>
<rect x="241" y="689" width="12" height="47" fill="#D9D9D9" fill-opacity="0.27"/>
<rect x="259" y="707" width="12" height="29" fill="#D9D9D9" fill-opacity="0.27"/>
<rect x="313" y="632" width="12" height="29" fill="#D9D9D9" fill-opacity="0.27"/>
<rect x="277" y="603" width="12" height="29" fill="#D9D9D9" fill-opacity="0.27"/>
<rect x="295" y="632" width="12" height="75" fill="#D9D9D9" fill-opacity="0.27"/>
<rect x="385.001" y="661" width="12" height="46" fill="#D9D9D9" fill-opacity="0.27"/>
<rect x="331" y="632" width="12" height="133" fill="#D9D9D9" fill-opacity="0.27"/>
<path d="M423.82 422.52C514.96 422.52 561.58 465.36 561.58 544.74C561.58 624.54 514.96 666.96 423.82 666.96L310.84 666.96L310.84 637.14L423.82 637.14C496.48 637.14 531.34 609.42 531.34 544.74C531.34 480.06 496.9 451.92 423.82 451.92L310.84 451.92L310.84 422.52L423.82 422.52ZM544.78 363.72L544.78 393.54L310.84 393.54L310.84 363.72L544.78 363.72Z" fill="black" fill-opacity="0.19"/>
<rect x="433" y="467" width="12" height="76" fill="#D9D9D9" fill-opacity="0.27"/>
<rect x="451" y="410" width="12" height="104" fill="#D9D9D9" fill-opacity="0.27"/>
<rect x="397" y="514" width="12" height="29" fill="#D9D9D9" fill-opacity="0.27"/>
<rect x="343" y="514" width="12" height="29" fill="#D9D9D9" fill-opacity="0.27"/>
<rect x="397" y="439" width="12" height="29" fill="#D9D9D9" fill-opacity="0.27"/>
<rect x="361" y="410" width="12" height="29" fill="#D9D9D9" fill-opacity="0.27"/>
<rect x="379" y="439" width="12" height="75" fill="#D9D9D9" fill-opacity="0.27"/>
<rect x="469.001" y="468" width="12" height="46" fill="#D9D9D9" fill-opacity="0.27"/>
<rect x="421" y="485" width="12" height="87" fill="#D9D9D9" fill-opacity="0.27"/>
<rect x="409" y="439" width="12" height="46" fill="#D9D9D9" fill-opacity="0.27"/>
<rect x="313" y="707" width="12" height="29" fill="#D9D9D9" fill-opacity="0.27"/>
<rect x="241" y="689" width="12" height="47" fill="#D9D9D9" fill-opacity="0.27"/>
<rect x="307" y="632" width="12" height="29" fill="#D9D9D9" fill-opacity="0.27"/>
<rect x="277" y="603" width="12" height="29" fill="#D9D9D9" fill-opacity="0.27"/>
<rect x="283" y="658" width="12" height="29" fill="#D9D9D9" fill-opacity="0.27"/>
<rect x="295" y="632" width="12" height="75" fill="#D9D9D9" fill-opacity="0.27"/>
<rect x="385.001" y="661" width="12" height="46" fill="#D9D9D9" fill-opacity="0.27"/>
<rect x="199.001" y="591" width="12" height="29" fill="#D9D9D9" fill-opacity="0.27"/>
<rect x="163" y="591" width="12" height="29" fill="#D9D9D9" fill-opacity="0.27"/>
<rect x="145" y="591" width="12" height="29" fill="#D9D9D9" fill-opacity="0.27"/>
<rect x="193" y="516" width="12" height="29" fill="#D9D9D9" fill-opacity="0.27"/>
<rect x="163.001" y="487" width="12" height="29" fill="#D9D9D9" fill-opacity="0.27"/>
<rect x="169" y="542" width="12" height="29" fill="#D9D9D9" fill-opacity="0.27"/>
<rect x="181.001" y="516" width="12" height="75" fill="#D9D9D9" fill-opacity="0.27"/>
<rect x="271.001" y="545" width="12" height="46" fill="#D9D9D9" fill-opacity="0.27"/>
<rect x="407" y="263" width="12" height="29" fill="#D9D9D9" fill-opacity="0.27"/>
<rect x="371" y="263" width="12" height="29" fill="#D9D9D9" fill-opacity="0.27"/>
<rect x="353" y="263" width="12" height="29" fill="#D9D9D9" fill-opacity="0.27"/>
<rect x="401" y="188" width="12" height="29" fill="#D9D9D9" fill-opacity="0.27"/>
<rect x="371" y="159" width="12" height="29" fill="#D9D9D9" fill-opacity="0.27"/>
<rect x="377" y="214" width="12" height="29" fill="#D9D9D9" fill-opacity="0.27"/>
<rect x="389" y="188" width="12" height="75" fill="#D9D9D9" fill-opacity="0.27"/>
<rect x="479" y="217" width="12" height="46" fill="#D9D9D9" fill-opacity="0.27"/>
<rect x="305" y="367" width="12" height="14" fill="#D9D9D9" fill-opacity="0.27"/>
<rect x="323" y="263" width="12" height="29" fill="#D9D9D9" fill-opacity="0.27"/>
<rect x="341" y="339" width="12" height="28" fill="#D9D9D9" fill-opacity="0.27"/>
<rect x="329" y="310" width="12" height="29" fill="#D9D9D9" fill-opacity="0.27"/>
<rect x="235" y="485" width="12" height="104" transform="rotate(-180 235 485)" fill="#D9D9D9" fill-opacity="0.27"/>
<rect x="217" y="514" width="12" height="104" transform="rotate(-180 217 514)" fill="#D9D9D9" fill-opacity="0.27"/>
<rect x="271" y="410" width="12" height="29" transform="rotate(-180 271 410)" fill="#D9D9D9" fill-opacity="0.27"/>
<rect x="307" y="514" width="12" height="29" transform="rotate(-180 307 514)" fill="#D9D9D9" fill-opacity="0.27"/>
<rect x="289" y="485" width="12" height="75" transform="rotate(-180 289 485)" fill="#D9D9D9" fill-opacity="0.27"/>
<rect x="253" y="514" width="12" height="133" transform="rotate(-180 253 514)" fill="#D9D9D9" fill-opacity="0.27"/>
<rect x="503.001" y="367" width="12" height="104" transform="rotate(-180 503.001 367)" fill="#D9D9D9" fill-opacity="0.27"/>
<rect x="485.001" y="396" width="12" height="104" transform="rotate(-180 485.001 396)" fill="#D9D9D9" fill-opacity="0.27"/>
<rect x="539.001" y="292" width="12" height="29" transform="rotate(-180 539.001 292)" fill="#D9D9D9" fill-opacity="0.27"/>
<rect x="575.001" y="396" width="12" height="29" transform="rotate(-180 575.001 396)" fill="#D9D9D9" fill-opacity="0.27"/>
<rect x="557.001" y="367" width="12" height="75" transform="rotate(-180 557.001 367)" fill="#D9D9D9" fill-opacity="0.27"/>
<rect x="521.001" y="396" width="12" height="133" transform="rotate(-180 521.001 396)" fill="#D9D9D9" fill-opacity="0.27"/>
<rect x="133.001" y="339" width="12" height="104" fill="#D9D9D9" fill-opacity="0.27"/>
<rect x="79.001" y="443" width="12" height="29" fill="#D9D9D9" fill-opacity="0.27"/>
<rect x="43.001" y="339" width="12" height="29" fill="#D9D9D9" fill-opacity="0.27"/>
<rect x="79" y="339" width="12" height="75" fill="#D9D9D9" fill-opacity="0.27"/>
<rect x="67" y="368" width="12" height="75" fill="#D9D9D9" fill-opacity="0.27"/>
<rect x="91" y="368" width="12" height="17" fill="#D9D9D9" fill-opacity="0.27"/>
<rect x="1047.99" y="343.001" width="12" height="104" transform="rotate(-180 1047.99 343.001)" fill="#D9D9D9" fill-opacity="0.27"/>
<rect x="1029.99" y="372.001" width="12" height="104" transform="rotate(-180 1029.99 372.001)" fill="#D9D9D9" fill-opacity="0.27"/>
<rect x="1083.99" y="268.001" width="12" height="29" transform="rotate(-180 1083.99 268.001)" fill="#D9D9D9" fill-opacity="0.27"/>
<rect x="1119.99" y="372.001" width="12" height="29" transform="rotate(-180 1119.99 372.001)" fill="#D9D9D9" fill-opacity="0.27"/>
<rect x="1101.99" y="343.001" width="12" height="75" transform="rotate(-180 1101.99 343.001)" fill="#D9D9D9" fill-opacity="0.27"/>
<rect x="1113.99" y="314.001" width="12" height="75" transform="rotate(-180 1113.99 314.001)" fill="#D9D9D9" fill-opacity="0.27"/>
<rect x="1089.99" y="372.001" width="12" height="75" transform="rotate(-180 1089.99 372.001)" fill="#D9D9D9" fill-opacity="0.27"/>
<rect x="1065.99" y="372.001" width="12" height="133" transform="rotate(-180 1065.99 372.001)" fill="#D9D9D9" fill-opacity="0.27"/>
<rect x="993.994" y="536" width="12" height="104" transform="rotate(-180 993.994 536)" fill="#D9D9D9" fill-opacity="0.27"/>
<rect x="975.994" y="565" width="12" height="104" transform="rotate(-180 975.994 565)" fill="#D9D9D9" fill-opacity="0.27"/>
<rect x="1029.99" y="461" width="12" height="29" transform="rotate(-180 1029.99 461)" fill="#D9D9D9" fill-opacity="0.27"/>
<rect x="1029.99" y="536" width="12" height="29" transform="rotate(-180 1029.99 536)" fill="#D9D9D9" fill-opacity="0.27"/>
<rect x="1065.99" y="565" width="12" height="29" transform="rotate(-180 1065.99 565)" fill="#D9D9D9" fill-opacity="0.27"/>
<rect x="1047.99" y="536" width="12" height="75" transform="rotate(-180 1047.99 536)" fill="#D9D9D9" fill-opacity="0.27"/>
<rect x="957.994" y="507" width="12" height="46" transform="rotate(-180 957.994 507)" fill="#D9D9D9" fill-opacity="0.27"/>
<rect x="1011.99" y="536" width="12" height="133" transform="rotate(-180 1011.99 536)" fill="#D9D9D9" fill-opacity="0.27"/>
<rect x="857.994" y="460.001" width="12" height="76" fill="#D9D9D9" fill-opacity="0.27"/>
<rect x="875.994" y="403.001" width="12" height="104" fill="#D9D9D9" fill-opacity="0.27"/>
<rect x="821.994" y="507.001" width="12" height="29" fill="#D9D9D9" fill-opacity="0.27"/>
<rect x="785.994" y="507.001" width="12" height="29" fill="#D9D9D9" fill-opacity="0.27"/>
<rect x="749.994" y="489.001" width="12" height="47" fill="#D9D9D9" fill-opacity="0.27"/>
<rect x="767.994" y="507.001" width="12" height="29" fill="#D9D9D9" fill-opacity="0.27"/>
<rect x="821.994" y="432.001" width="12" height="29" fill="#D9D9D9" fill-opacity="0.27"/>
<rect x="785.994" y="403.001" width="12" height="29" fill="#D9D9D9" fill-opacity="0.27"/>
<rect x="803.994" y="432.001" width="12" height="75" fill="#D9D9D9" fill-opacity="0.27"/>
<rect x="893.994" y="461.001" width="12" height="46" fill="#D9D9D9" fill-opacity="0.27"/>
<rect x="839.994" y="432.001" width="12" height="133" fill="#D9D9D9" fill-opacity="0.27"/>
<path d="M879.718 598.588C815.272 663.034 752.014 665.707 695.884 609.577C639.457 553.15 642.427 490.189 706.872 425.743L786.761 345.854L807.847 366.94L727.958 446.829C676.58 498.208 671.531 542.458 717.267 588.194C763.003 633.93 807.253 629.475 858.929 577.8L938.818 497.911L959.606 518.7L879.718 598.588ZM835.764 725.698L814.678 704.612L980.098 539.192L1001.18 560.277L835.764 725.698Z" fill="#614B4B" fill-opacity="0.26"/>
<rect x="941.994" y="267" width="12" height="76" fill="#D9D9D9" fill-opacity="0.27"/>
<rect x="959.994" y="210" width="12" height="104" fill="#D9D9D9" fill-opacity="0.27"/>
<rect x="905.994" y="314" width="12" height="29" fill="#D9D9D9" fill-opacity="0.27"/>
<rect x="851.994" y="314" width="12" height="29" fill="#D9D9D9" fill-opacity="0.27"/>
<rect x="905.994" y="239" width="12" height="29" fill="#D9D9D9" fill-opacity="0.27"/>
<rect x="869.994" y="210" width="12" height="29" fill="#D9D9D9" fill-opacity="0.27"/>
<rect x="887.994" y="239" width="12" height="75" fill="#D9D9D9" fill-opacity="0.27"/>
<rect x="977.994" y="268" width="12" height="46" fill="#D9D9D9" fill-opacity="0.27"/>
<rect x="929.994" y="285" width="12" height="87" fill="#D9D9D9" fill-opacity="0.27"/>
<rect x="917.994" y="239" width="12" height="46" fill="#D9D9D9" fill-opacity="0.27"/>
<rect x="821.994" y="507.001" width="12" height="29" fill="#D9D9D9" fill-opacity="0.27"/>
<rect x="749.994" y="489.001" width="12" height="47" fill="#D9D9D9" fill-opacity="0.27"/>
<rect x="815.994" y="432.001" width="12" height="29" fill="#D9D9D9" fill-opacity="0.27"/>
<rect x="785.994" y="403.001" width="12" height="29" fill="#D9D9D9" fill-opacity="0.27"/>
<rect x="791.994" y="458.001" width="12" height="29" fill="#D9D9D9" fill-opacity="0.27"/>
<rect x="803.994" y="432.001" width="12" height="75" fill="#D9D9D9" fill-opacity="0.27"/>
<rect x="893.994" y="461.001" width="12" height="46" fill="#D9D9D9" fill-opacity="0.27"/>
<rect x="707.994" y="391.001" width="12" height="29" fill="#D9D9D9" fill-opacity="0.27"/>
<rect x="671.994" y="391.001" width="12" height="29" fill="#D9D9D9" fill-opacity="0.27"/>
<rect x="653.994" y="391.001" width="12" height="29" fill="#D9D9D9" fill-opacity="0.27"/>
<rect x="701.994" y="316.001" width="12" height="29" fill="#D9D9D9" fill-opacity="0.27"/>
<rect x="671.994" y="287.001" width="12" height="29" fill="#D9D9D9" fill-opacity="0.27"/>
<rect x="677.994" y="342.001" width="12" height="29" fill="#D9D9D9" fill-opacity="0.27"/>
<rect x="689.994" y="316.001" width="12" height="75" fill="#D9D9D9" fill-opacity="0.27"/>
<rect x="779.994" y="345.001" width="12" height="46" fill="#D9D9D9" fill-opacity="0.27"/>
<rect x="915.994" y="62.999" width="12" height="29" fill="#D9D9D9" fill-opacity="0.27"/>
<rect x="879.994" y="62.999" width="12" height="29" fill="#D9D9D9" fill-opacity="0.27"/>
<rect x="861.994" y="62.999" width="12" height="29" fill="#D9D9D9" fill-opacity="0.27"/>
<rect x="909.994" y="-12.001" width="12" height="29" fill="#D9D9D9" fill-opacity="0.27"/>
<rect x="885.994" y="13.999" width="12" height="29" fill="#D9D9D9" fill-opacity="0.27"/>
<rect x="897.994" y="-12.001" width="12" height="75" fill="#D9D9D9" fill-opacity="0.27"/>
<rect x="987.994" y="16.999" width="12" height="46" fill="#D9D9D9" fill-opacity="0.27"/>
<rect x="813.994" y="166.999" width="12" height="14" fill="#D9D9D9" fill-opacity="0.27"/>
<rect x="831.994" y="62.999" width="12" height="29" fill="#D9D9D9" fill-opacity="0.27"/>
<rect x="849.994" y="138.999" width="12" height="28" fill="#D9D9D9" fill-opacity="0.27"/>
<rect x="837.994" y="109.999" width="12" height="29" fill="#D9D9D9" fill-opacity="0.27"/>
<rect x="743.994" y="285.001" width="12" height="104" transform="rotate(-180 743.994 285.001)" fill="#D9D9D9" fill-opacity="0.27"/>
<rect x="725.994" y="314.001" width="12" height="104" transform="rotate(-180 725.994 314.001)" fill="#D9D9D9" fill-opacity="0.27"/>
<rect x="779.994" y="210.001" width="12" height="29" transform="rotate(-180 779.994 210.001)" fill="#D9D9D9" fill-opacity="0.27"/>
<rect x="815.994" y="314.001" width="12" height="29" transform="rotate(-180 815.994 314.001)" fill="#D9D9D9" fill-opacity="0.27"/>
<rect x="797.994" y="285.001" width="12" height="75" transform="rotate(-180 797.994 285.001)" fill="#D9D9D9" fill-opacity="0.27"/>
<rect x="761.994" y="314.001" width="12" height="133" transform="rotate(-180 761.994 314.001)" fill="#D9D9D9" fill-opacity="0.27"/>
<rect x="1011.99" y="167" width="12" height="104" transform="rotate(-180 1011.99 167)" fill="#D9D9D9" fill-opacity="0.27"/>
<rect x="993.994" y="196" width="12" height="104" transform="rotate(-180 993.994 196)" fill="#D9D9D9" fill-opacity="0.27"/>
<rect x="1047.99" y="92" width="12" height="29" transform="rotate(-180 1047.99 92)" fill="#D9D9D9" fill-opacity="0.27"/>
<rect x="1083.99" y="196" width="12" height="29" transform="rotate(-180 1083.99 196)" fill="#D9D9D9" fill-opacity="0.27"/>
<rect x="1065.99" y="167" width="12" height="75" transform="rotate(-180 1065.99 167)" fill="#D9D9D9" fill-opacity="0.27"/>
<rect x="1029.99" y="196" width="12" height="133" transform="rotate(-180 1029.99 196)" fill="#D9D9D9" fill-opacity="0.27"/>
<rect x="641.994" y="138.999" width="12" height="104" fill="#D9D9D9" fill-opacity="0.27"/>
<rect x="587.994" y="242.999" width="12" height="29" fill="#D9D9D9" fill-opacity="0.27"/>
<rect x="551.994" y="138.999" width="12" height="29" fill="#D9D9D9" fill-opacity="0.27"/>
<rect x="587.993" y="138.999" width="12" height="75" fill="#D9D9D9" fill-opacity="0.27"/>
<rect x="575.993" y="167.999" width="12" height="75" fill="#D9D9D9" fill-opacity="0.27"/>
<rect x="599.993" y="167.999" width="12" height="17" fill="#D9D9D9" fill-opacity="0.27"/>
<rect x="1177.5" y="587.501" width="12" height="104" fill="#D9D9D9" fill-opacity="0.27"/>
<rect x="1195.5" y="558.501" width="12" height="104" fill="#D9D9D9" fill-opacity="0.27"/>
<rect x="1141.5" y="662.501" width="12" height="29" fill="#D9D9D9" fill-opacity="0.27"/>
<rect x="1105.5" y="558.501" width="12" height="29" fill="#D9D9D9" fill-opacity="0.27"/>
<rect x="1123.5" y="587.501" width="12" height="75" fill="#D9D9D9" fill-opacity="0.27"/>
<rect x="1111.5" y="616.501" width="12" height="75" fill="#D9D9D9" fill-opacity="0.27"/>
<rect x="1135.5" y="558.501" width="12" height="75" fill="#D9D9D9" fill-opacity="0.27"/>
<rect x="1159.5" y="558.501" width="12" height="133" fill="#D9D9D9" fill-opacity="0.27"/>
<rect x="1231.5" y="394.501" width="12" height="104" fill="#D9D9D9" fill-opacity="0.27"/>
<rect x="1249.5" y="365.501" width="12" height="104" fill="#D9D9D9" fill-opacity="0.27"/>
<rect x="1195.5" y="469.501" width="12" height="29" fill="#D9D9D9" fill-opacity="0.27"/>
<rect x="1195.5" y="394.501" width="12" height="29" fill="#D9D9D9" fill-opacity="0.27"/>
<rect x="1159.5" y="365.501" width="12" height="29" fill="#D9D9D9" fill-opacity="0.27"/>
<rect x="1177.5" y="394.501" width="12" height="75" fill="#D9D9D9" fill-opacity="0.27"/>
<rect x="1267.5" y="423.501" width="12" height="46" fill="#D9D9D9" fill-opacity="0.27"/>
<rect x="1213.5" y="394.501" width="12" height="133" fill="#D9D9D9" fill-opacity="0.27"/>
<rect x="1367.5" y="470.501" width="12" height="76" transform="rotate(180 1367.5 470.501)" fill="#D9D9D9" fill-opacity="0.27"/>
<rect x="1349.5" y="527.501" width="12" height="104" transform="rotate(180 1349.5 527.501)" fill="#D9D9D9" fill-opacity="0.27"/>
<rect x="1403.5" y="423.501" width="12" height="29" transform="rotate(180 1403.5 423.501)" fill="#D9D9D9" fill-opacity="0.27"/>
<rect x="1439.5" y="423.501" width="12" height="29" transform="rotate(180 1439.5 423.501)" fill="#D9D9D9" fill-opacity="0.27"/>
<rect x="1475.5" y="441.501" width="12" height="47" transform="rotate(180 1475.5 441.501)" fill="#D9D9D9" fill-opacity="0.27"/>
<rect x="1457.5" y="423.501" width="12" height="29" transform="rotate(180 1457.5 423.501)" fill="#D9D9D9" fill-opacity="0.27"/>
<rect x="1403.5" y="498.501" width="12" height="29" transform="rotate(180 1403.5 498.501)" fill="#D9D9D9" fill-opacity="0.27"/>
<rect x="1439.5" y="527.501" width="12" height="29" transform="rotate(180 1439.5 527.501)" fill="#D9D9D9" fill-opacity="0.27"/>
<rect x="1421.5" y="498.501" width="12" height="75" transform="rotate(180 1421.5 498.501)" fill="#D9D9D9" fill-opacity="0.27"/>
<rect x="1331.5" y="469.501" width="12" height="46" transform="rotate(180 1331.5 469.501)" fill="#D9D9D9" fill-opacity="0.27"/>
<rect x="1385.5" y="498.501" width="12" height="133" transform="rotate(180 1385.5 498.501)" fill="#D9D9D9" fill-opacity="0.27"/>
<path d="M1111.02 530.681C1111.02 439.541 1153.86 392.921 1233.24 392.921C1313.04 392.921 1355.46 439.541 1355.46 530.681L1355.46 643.661L1325.64 643.661L1325.64 530.681C1325.64 458.021 1297.92 423.161 1233.24 423.161C1168.56 423.161 1140.42 457.601 1140.42 530.681L1140.42 643.661L1111.02 643.661L1111.02 530.681ZM1052.22 409.721L1082.04 409.721L1082.04 643.661L1052.22 643.661L1052.22 409.721Z" fill="#886565" fill-opacity="0.37"/>
<rect x="1012" y="626" width="12" height="76" transform="rotate(180 1012 626)" fill="#D9D9D9" fill-opacity="0.27"/>
<rect x="994.002" y="683" width="12" height="104" transform="rotate(180 994.002 683)" fill="#D9D9D9" fill-opacity="0.27"/>
<rect x="1048" y="579" width="12" height="29" transform="rotate(180 1048 579)" fill="#D9D9D9" fill-opacity="0.27"/>
<rect x="1102" y="579" width="12" height="29" transform="rotate(180 1102 579)" fill="#D9D9D9" fill-opacity="0.27"/>
<rect x="1048" y="654" width="12" height="29" transform="rotate(180 1048 654)" fill="#D9D9D9" fill-opacity="0.27"/>
<rect x="1084" y="683" width="12" height="29" transform="rotate(180 1084 683)" fill="#D9D9D9" fill-opacity="0.27"/>
<rect x="1066" y="654" width="12" height="75" transform="rotate(180 1066 654)" fill="#D9D9D9" fill-opacity="0.27"/>
<rect x="976" y="625" width="12" height="46" transform="rotate(180 976 625)" fill="#D9D9D9" fill-opacity="0.27"/>
<rect x="1024" y="608" width="12" height="87" transform="rotate(180 1024 608)" fill="#D9D9D9" fill-opacity="0.27"/>
<rect x="1036" y="654" width="12" height="46" transform="rotate(180 1036 654)" fill="#D9D9D9" fill-opacity="0.27"/>
<rect x="1132" y="386" width="12" height="29" transform="rotate(180 1132 386)" fill="#D9D9D9" fill-opacity="0.27"/>
<rect x="1204" y="404" width="12" height="47" transform="rotate(180 1204 404)" fill="#D9D9D9" fill-opacity="0.27"/>
<rect x="1138" y="461" width="12" height="29" transform="rotate(180 1138 461)" fill="#D9D9D9" fill-opacity="0.27"/>
<rect x="1168" y="490" width="12" height="29" transform="rotate(180 1168 490)" fill="#D9D9D9" fill-opacity="0.27"/>
<rect x="1162" y="435" width="12" height="29" transform="rotate(180 1162 435)" fill="#D9D9D9" fill-opacity="0.27"/>
<rect x="1150" y="461" width="12" height="75" transform="rotate(180 1150 461)" fill="#D9D9D9" fill-opacity="0.27"/>
<rect x="1060" y="432" width="12" height="46" transform="rotate(180 1060 432)" fill="#D9D9D9" fill-opacity="0.27"/>
<rect x="1246" y="502" width="12" height="29" transform="rotate(180 1246 502)" fill="#D9D9D9" fill-opacity="0.27"/>
<rect x="1282" y="502" width="12" height="29" transform="rotate(180 1282 502)" fill="#D9D9D9" fill-opacity="0.27"/>
<rect x="1300" y="502" width="12" height="29" transform="rotate(180 1300 502)" fill="#D9D9D9" fill-opacity="0.27"/>
<rect x="1252" y="577" width="12" height="29" transform="rotate(180 1252 577)" fill="#D9D9D9" fill-opacity="0.27"/>
<rect x="1282" y="606" width="12" height="29" transform="rotate(180 1282 606)" fill="#D9D9D9" fill-opacity="0.27"/>
<rect x="1276" y="551" width="12" height="29" transform="rotate(180 1276 551)" fill="#D9D9D9" fill-opacity="0.27"/>
<rect x="1264" y="577" width="12" height="75" transform="rotate(180 1264 577)" fill="#D9D9D9" fill-opacity="0.27"/>
<rect x="1174" y="548" width="12" height="46" transform="rotate(180 1174 548)" fill="#D9D9D9" fill-opacity="0.27"/>
<rect x="1038" y="830.002" width="12" height="29" transform="rotate(180 1038 830.002)" fill="#D9D9D9" fill-opacity="0.27"/>
<rect x="1074" y="830.002" width="12" height="29" transform="rotate(180 1074 830.002)" fill="#D9D9D9" fill-opacity="0.27"/>
<rect x="1092" y="830.002" width="12" height="29" transform="rotate(180 1092 830.002)" fill="#D9D9D9" fill-opacity="0.27"/>
<rect x="1044" y="905.002" width="12" height="29" transform="rotate(180 1044 905.002)" fill="#D9D9D9" fill-opacity="0.27"/>
<rect x="1074" y="934.002" width="12" height="29" transform="rotate(180 1074 934.002)" fill="#D9D9D9" fill-opacity="0.27"/>
<rect x="1068" y="879.002" width="12" height="29" transform="rotate(180 1068 879.002)" fill="#D9D9D9" fill-opacity="0.27"/>
<rect x="1056" y="905.002" width="12" height="75" transform="rotate(180 1056 905.002)" fill="#D9D9D9" fill-opacity="0.27"/>
<rect x="966" y="876.002" width="12" height="46" transform="rotate(180 966 876.002)" fill="#D9D9D9" fill-opacity="0.27"/>
<rect x="1140" y="726.002" width="12" height="14" transform="rotate(180 1140 726.002)" fill="#D9D9D9" fill-opacity="0.27"/>
<rect x="1122" y="830.002" width="12" height="29" transform="rotate(180 1122 830.002)" fill="#D9D9D9" fill-opacity="0.27"/>
<rect x="1104" y="754.002" width="12" height="28" transform="rotate(180 1104 754.002)" fill="#D9D9D9" fill-opacity="0.27"/>
<rect x="1116" y="783.002" width="12" height="29" transform="rotate(180 1116 783.002)" fill="#D9D9D9" fill-opacity="0.27"/>
<rect x="1210" y="608" width="12" height="104" fill="#D9D9D9" fill-opacity="0.27"/>
<rect x="1228" y="579" width="12" height="104" fill="#D9D9D9" fill-opacity="0.27"/>
<rect x="1174" y="683" width="12" height="29" fill="#D9D9D9" fill-opacity="0.27"/>
<rect x="1138" y="579" width="12" height="29" fill="#D9D9D9" fill-opacity="0.27"/>
<rect x="1156" y="608" width="12" height="75" fill="#D9D9D9" fill-opacity="0.27"/>
<rect x="1192" y="579" width="12" height="133" fill="#D9D9D9" fill-opacity="0.27"/>
<rect x="942.002" y="726" width="12" height="104" fill="#D9D9D9" fill-opacity="0.27"/>
<rect x="960.002" y="697" width="12" height="104" fill="#D9D9D9" fill-opacity="0.27"/>
<rect x="906.002" y="801" width="12" height="29" fill="#D9D9D9" fill-opacity="0.27"/>
<rect x="870.002" y="697" width="12" height="29" fill="#D9D9D9" fill-opacity="0.27"/>
<rect x="888.002" y="726" width="12" height="75" fill="#D9D9D9" fill-opacity="0.27"/>
<rect x="924.002" y="697" width="12" height="133" fill="#D9D9D9" fill-opacity="0.27"/>
<rect x="1270" y="754" width="12" height="104" fill="#D9D9D9" fill-opacity="0.27"/>
<rect x="1288" y="725" width="12" height="104" fill="#D9D9D9" fill-opacity="0.27"/>
<rect x="1234" y="829" width="12" height="29" fill="#D9D9D9" fill-opacity="0.27"/>
<rect x="1198" y="725" width="12" height="29" fill="#D9D9D9" fill-opacity="0.27"/>
<rect x="1216" y="754" width="12" height="75" fill="#D9D9D9" fill-opacity="0.27"/>
<rect x="1204" y="783" width="12" height="75" fill="#D9D9D9" fill-opacity="0.27"/>
<rect x="1228" y="725" width="12" height="75" fill="#D9D9D9" fill-opacity="0.27"/>
<rect x="1252" y="725" width="12" height="133" fill="#D9D9D9" fill-opacity="0.27"/>
<rect x="1312" y="754" width="12" height="104" transform="rotate(-180 1312 754)" fill="#D9D9D9" fill-opacity="0.27"/>
<rect x="1366" y="650" width="12" height="29" transform="rotate(-180 1366 650)" fill="#D9D9D9" fill-opacity="0.27"/>
<rect x="1402" y="754" width="12" height="29" transform="rotate(-180 1402 754)" fill="#D9D9D9" fill-opacity="0.27"/>
<rect x="1366" y="754" width="12" height="75" transform="rotate(-180 1366 754)" fill="#D9D9D9" fill-opacity="0.27"/>
<rect x="1378" y="725" width="12" height="75" transform="rotate(-180 1378 725)" fill="#D9D9D9" fill-opacity="0.27"/>
<rect x="1354" y="725" width="12" height="17" transform="rotate(-180 1354 725)" fill="#D9D9D9" fill-opacity="0.27"/>
<rect x="516" y="858" width="12" height="104" transform="rotate(-180 516 858)" fill="#D9D9D9" fill-opacity="0.27"/>
<rect x="498" y="887" width="12" height="104" transform="rotate(-180 498 887)" fill="#D9D9D9" fill-opacity="0.27"/>
<rect x="552" y="783" width="12" height="29" transform="rotate(-180 552 783)" fill="#D9D9D9" fill-opacity="0.27"/>
<rect x="588" y="887" width="12" height="29" transform="rotate(-180 588 887)" fill="#D9D9D9" fill-opacity="0.27"/>
<rect x="570" y="858" width="12" height="75" transform="rotate(-180 570 858)" fill="#D9D9D9" fill-opacity="0.27"/>
<rect x="582" y="829" width="12" height="75" transform="rotate(-180 582 829)" fill="#D9D9D9" fill-opacity="0.27"/>
<rect x="558" y="887" width="12" height="75" transform="rotate(-180 558 887)" fill="#D9D9D9" fill-opacity="0.27"/>
<rect x="534" y="887" width="12" height="133" transform="rotate(-180 534 887)" fill="#D9D9D9" fill-opacity="0.27"/>
<path d="M1484 105H1934C2127.3 105 2284 261.7 2284 455V755C2284 837.843 2216.84 905 2134 905H1834C1640.7 905 1484 748.3 1484 555V105Z" fill="#E7E7E7" fill-opacity="0.5"/>
<path d="M1788.27 693.586L1782.08 693.967C1781.98 693.438 1781.75 692.962 1781.4 692.539C1781.05 692.106 1780.59 691.762 1780.02 691.509C1779.46 691.244 1778.79 691.112 1778.01 691.112C1776.96 691.112 1776.08 691.334 1775.36 691.778C1774.64 692.212 1774.28 692.793 1774.28 693.523C1774.28 694.104 1774.51 694.596 1774.98 694.998C1775.44 695.399 1776.24 695.722 1777.37 695.965L1781.78 696.853C1784.15 697.34 1785.91 698.122 1787.08 699.2C1788.24 700.279 1788.82 701.696 1788.82 703.451C1788.82 705.047 1788.35 706.448 1787.41 707.654C1786.48 708.859 1785.2 709.8 1783.57 710.477C1781.96 711.143 1780.09 711.476 1777.97 711.476C1774.75 711.476 1772.18 710.804 1770.27 709.462C1768.36 708.108 1767.25 706.269 1766.92 703.942L1773.57 703.594C1773.77 704.577 1774.25 705.328 1775.02 705.846C1775.8 706.353 1776.79 706.607 1777.99 706.607C1779.17 706.607 1780.13 706.38 1780.85 705.925C1781.57 705.46 1781.94 704.862 1781.96 704.133C1781.94 703.52 1781.69 703.017 1781.18 702.626C1780.67 702.224 1779.89 701.918 1778.83 701.706L1774.61 700.866C1772.23 700.39 1770.46 699.565 1769.3 698.392C1768.15 697.218 1767.57 695.722 1767.57 693.903C1767.57 692.339 1767.99 690.991 1768.84 689.859C1769.7 688.728 1770.9 687.856 1772.44 687.242C1773.99 686.629 1775.81 686.323 1777.9 686.323C1780.97 686.323 1783.39 686.973 1785.16 688.273C1786.94 689.574 1787.97 691.345 1788.27 693.586ZM1803.95 720.135C1803.09 720.135 1802.29 720.066 1801.54 719.929C1800.8 719.802 1800.18 719.638 1799.7 719.437L1801.22 714.394C1802.01 714.637 1802.73 714.769 1803.36 714.79C1804.01 714.812 1804.56 714.664 1805.03 714.346C1805.5 714.029 1805.89 713.49 1806.18 712.729L1806.58 711.698L1797.84 686.64L1804.95 686.64L1809.99 704.529L1810.24 704.529L1815.33 686.64L1822.49 686.64L1813.02 713.633C1812.56 714.944 1811.95 716.086 1811.16 717.058C1810.39 718.042 1809.41 718.798 1808.23 719.326C1807.04 719.866 1805.62 720.135 1803.95 720.135ZM1839.4 696.917L1839.4 711L1832.64 711L1832.64 686.64L1839.08 686.64L1839.08 690.938L1839.37 690.938C1839.91 689.521 1840.81 688.4 1842.08 687.575C1843.35 686.74 1844.89 686.323 1846.69 686.323C1848.39 686.323 1849.86 686.693 1851.12 687.433C1852.38 688.173 1853.36 689.23 1854.05 690.605C1854.75 691.969 1855.1 693.597 1855.1 695.489L1855.1 711L1848.34 711L1848.34 696.695C1848.35 695.204 1847.97 694.041 1847.2 693.206C1846.43 692.36 1845.37 691.937 1844.01 691.937C1843.11 691.937 1842.3 692.132 1841.6 692.524C1840.92 692.915 1840.38 693.486 1839.99 694.236C1839.61 694.977 1839.41 695.87 1839.4 696.917ZM1866.1 675.242L1866.1 667.693L1901.66 667.693L1901.66 675.242L1888.41 675.242L1888.41 711L1879.35 711L1879.35 675.242L1866.1 675.242ZM1917.05 711L1917.05 667.693L1926.21 667.693L1926.21 686.788L1926.78 686.788L1942.36 667.693L1953.34 667.693L1937.26 687.084L1953.53 711L1942.57 711L1930.71 693.195L1926.21 698.693L1926.21 711L1917.05 711ZM2003.85 667.693L2003.85 711L1995.95 711L1977.11 683.743L1976.79 683.743L1976.79 711L1967.63 711L1967.63 667.693L1975.67 667.693L1994.36 694.929L1994.74 694.929L1994.74 667.693L2003.85 667.693Z" fill="#222222"/>
<path d="M1891.58 569.48C1800.44 569.48 1753.82 526.64 1753.82 447.26C1753.82 367.46 1800.44 325.04 1891.58 325.04L2004.56 325.04L2004.56 354.86L1891.58 354.86C1818.92 354.86 1784.06 382.58 1784.06 447.26C1784.06 511.94 1818.5 540.08 1891.58 540.08L2004.56 540.08L2004.56 569.48L1891.58 569.48ZM1770.62 628.28L1770.62 598.46L2004.56 598.46L2004.56 628.28L1770.62 628.28Z" fill="black"/>
</g>
<defs>
<clipPath id="clip0_20_5151">
<path d="M0 0H2000C2220.91 0 2400 179.086 2400 400V800C2400 910.457 2310.46 1000 2200 1000H400C179.086 1000 0 820.914 0 600V0Z" fill="white"/>
</clipPath>
<clipPath id="clip1_20_5151">
<rect width="1373" height="567" fill="white" transform="translate(131 220)"/>
</clipPath>
<clipPath id="clip2_20_5151">
<rect width="1373" height="567" fill="white" transform="translate(111 209)"/>
</clipPath>
</defs>
</svg>
